<svg width="1280" height="640" viewBox="0 0 1280 640" fill="none" xmlns="http://www.w3.org/2000/svg">
<rect width="1280" height="640" fill="url(#paint0_linear)"/>
<rect x="201" y="252" width="878" height="136" rx="16" fill="#323232"/>
<path d="M256.224 345H243.919V293.812H256.224V345ZM276.29 306.961L276.676 311.426C279.301 307.98 282.923 306.258 287.54 306.258C291.501 306.258 294.454 307.441 296.399 309.809C298.368 312.176 299.387 315.738 299.458 320.496V345H287.575V320.988C287.575 319.066 287.188 317.66 286.415 316.77C285.641 315.855 284.235 315.398 282.196 315.398C279.876 315.398 278.153 316.312 277.028 318.141V345H265.18V306.961H276.29ZM327.118 334.312C327.118 333.305 326.59 332.496 325.535 331.887C324.481 331.277 322.477 330.645 319.524 329.988C316.571 329.332 314.133 328.477 312.211 327.422C310.289 326.344 308.825 325.043 307.817 323.52C306.809 321.996 306.305 320.25 306.305 318.281C306.305 314.789 307.746 311.918 310.629 309.668C313.512 307.395 317.285 306.258 321.95 306.258C326.965 306.258 330.996 307.395 334.043 309.668C337.09 311.941 338.614 314.93 338.614 318.633H326.731C326.731 315.586 325.125 314.062 321.914 314.062C320.672 314.062 319.629 314.414 318.785 315.117C317.942 315.797 317.52 316.652 317.52 317.684C317.52 318.738 318.035 319.594 319.067 320.25C320.098 320.906 321.739 321.445 323.989 321.867C326.262 322.289 328.254 322.793 329.965 323.379C335.684 325.348 338.543 328.875 338.543 333.961C338.543 337.43 336.996 340.254 333.903 342.434C330.832 344.613 326.848 345.703 321.95 345.703C318.692 345.703 315.785 345.117 313.231 343.945C310.676 342.773 308.684 341.18 307.254 339.164C305.825 337.148 305.11 335.027 305.11 332.801H316.184C316.231 334.559 316.817 335.848 317.942 336.668C319.067 337.465 320.508 337.863 322.266 337.863C323.883 337.863 325.09 337.535 325.887 336.879C326.707 336.223 327.118 335.367 327.118 334.312ZM359.066 297.504V306.961H365.324V315.188H359.066V332.59C359.066 334.02 359.324 335.016 359.84 335.578C360.355 336.141 361.375 336.422 362.898 336.422C364.07 336.422 365.055 336.352 365.852 336.211V344.684C363.719 345.363 361.492 345.703 359.172 345.703C355.094 345.703 352.082 344.742 350.137 342.82C348.191 340.898 347.219 337.98 347.219 334.066V315.188H342.367V306.961H347.219V297.504H359.066ZM392.597 345C392.175 344.227 391.8 343.09 391.472 341.59C389.293 344.332 386.246 345.703 382.332 345.703C378.746 345.703 375.699 344.625 373.191 342.469C370.683 340.289 369.429 337.559 369.429 334.277C369.429 330.152 370.953 327.035 374 324.926C377.047 322.816 381.476 321.762 387.289 321.762H390.945V319.758C390.945 316.266 389.433 314.52 386.41 314.52C383.597 314.52 382.191 315.902 382.191 318.668H370.343C370.343 314.988 371.902 312 375.019 309.703C378.16 307.406 382.156 306.258 387.007 306.258C391.859 306.258 395.691 307.441 398.504 309.809C401.316 312.176 402.757 315.422 402.828 319.547V336.387C402.875 339.879 403.414 342.551 404.445 344.402V345H392.597ZM385.179 337.266C386.656 337.266 387.875 336.949 388.836 336.316C389.82 335.684 390.523 334.969 390.945 334.172V328.09H387.5C383.375 328.09 381.312 329.941 381.312 333.645C381.312 334.723 381.675 335.602 382.402 336.281C383.129 336.938 384.054 337.266 385.179 337.266ZM421.452 306.961L421.839 311.426C424.464 307.98 428.085 306.258 432.702 306.258C436.663 306.258 439.616 307.441 441.562 309.809C443.531 312.176 444.55 315.738 444.62 320.496V345H432.738V320.988C432.738 319.066 432.351 317.66 431.577 316.77C430.804 315.855 429.398 315.398 427.359 315.398C425.038 315.398 423.316 316.312 422.191 318.141V345H410.343V306.961H421.452ZM466.163 297.504V306.961H472.421V315.188H466.163V332.59C466.163 334.02 466.421 335.016 466.936 335.578C467.452 336.141 468.472 336.422 469.995 336.422C471.167 336.422 472.151 336.352 472.948 336.211V344.684C470.815 345.363 468.589 345.703 466.268 345.703C462.19 345.703 459.179 344.742 457.233 342.82C455.288 340.898 454.315 337.98 454.315 334.066V315.188H449.464V306.961H454.315V297.504H466.163Z" fill="#FAFAFA"/>
<rect x="508" y="316.5" width="209" height="7" fill="#CFCFCF"/>
<path d="M755.05 345V293.812H771.538C776.062 293.812 780.128 294.844 783.738 296.906C787.347 298.945 790.159 301.84 792.175 305.59C794.214 309.316 795.245 313.5 795.269 318.141V320.496C795.269 325.184 794.273 329.391 792.281 333.117C790.312 336.82 787.523 339.727 783.913 341.836C780.327 343.922 776.32 344.977 771.89 345H755.05ZM767.39 303.34V335.508H771.679C775.218 335.508 777.937 334.254 779.835 331.746C781.734 329.215 782.683 325.465 782.683 320.496V318.281C782.683 313.336 781.734 309.609 779.835 307.102C777.937 304.594 775.171 303.34 771.538 303.34H767.39ZM814.702 345H802.819V306.961H814.702V345ZM802.116 297.152C802.116 295.465 802.725 294.082 803.944 293.004C805.163 291.926 806.745 291.387 808.69 291.387C810.636 291.387 812.218 291.926 813.436 293.004C814.655 294.082 815.265 295.465 815.265 297.152C815.265 298.84 814.655 300.223 813.436 301.301C812.218 302.379 810.636 302.918 808.69 302.918C806.745 302.918 805.163 302.379 803.944 301.301C802.725 300.223 802.116 298.84 802.116 297.152ZM843.1 334.312C843.1 333.305 842.573 332.496 841.518 331.887C840.463 331.277 838.46 330.645 835.506 329.988C832.553 329.332 830.116 328.477 828.194 327.422C826.272 326.344 824.807 325.043 823.799 323.52C822.792 321.996 822.288 320.25 822.288 318.281C822.288 314.789 823.729 311.918 826.612 309.668C829.495 307.395 833.268 306.258 837.932 306.258C842.948 306.258 846.979 307.395 850.026 309.668C853.073 311.941 854.596 314.93 854.596 318.633H842.713C842.713 315.586 841.108 314.062 837.897 314.062C836.655 314.062 835.612 314.414 834.768 315.117C833.924 315.797 833.502 316.652 833.502 317.684C833.502 318.738 834.018 319.594 835.049 320.25C836.081 320.906 837.721 321.445 839.971 321.867C842.245 322.289 844.237 322.793 845.948 323.379C851.667 325.348 854.526 328.875 854.526 333.961C854.526 337.43 852.979 340.254 849.885 342.434C846.815 344.613 842.831 345.703 837.932 345.703C834.674 345.703 831.768 345.117 829.213 343.945C826.659 342.773 824.667 341.18 823.237 339.164C821.807 337.148 821.092 335.027 821.092 332.801H832.167C832.213 334.559 832.799 335.848 833.924 336.668C835.049 337.465 836.491 337.863 838.249 337.863C839.866 337.863 841.073 337.535 841.87 336.879C842.69 336.223 843.1 335.367 843.1 334.312ZM875.049 297.504V306.961H881.307V315.188H875.049V332.59C875.049 334.02 875.307 335.016 875.822 335.578C876.338 336.141 877.358 336.422 878.881 336.422C880.053 336.422 881.037 336.352 881.834 336.211V344.684C879.701 345.363 877.475 345.703 875.154 345.703C871.076 345.703 868.065 344.742 866.119 342.82C864.174 340.898 863.201 337.98 863.201 334.066V315.188H858.35V306.961H863.201V297.504H875.049ZM908.58 345C908.158 344.227 907.783 343.09 907.455 341.59C905.275 344.332 902.228 345.703 898.314 345.703C894.728 345.703 891.681 344.625 889.174 342.469C886.666 340.289 885.412 337.559 885.412 334.277C885.412 330.152 886.935 327.035 889.982 324.926C893.029 322.816 897.459 321.762 903.271 321.762H906.928V319.758C906.928 316.266 905.416 314.52 902.392 314.52C899.58 314.52 898.174 315.902 898.174 318.668H886.326C886.326 314.988 887.885 312 891.002 309.703C894.142 307.406 898.139 306.258 902.99 306.258C907.842 306.258 911.674 307.441 914.486 309.809C917.299 312.176 918.74 315.422 918.81 319.547V336.387C918.857 339.879 919.396 342.551 920.428 344.402V345H908.58ZM901.162 337.266C902.639 337.266 903.857 336.949 904.818 336.316C905.803 335.684 906.506 334.969 906.928 334.172V328.09H903.482C899.357 328.09 897.295 329.941 897.295 333.645C897.295 334.723 897.658 335.602 898.385 336.281C899.111 336.938 900.037 337.266 901.162 337.266ZM937.435 306.961L937.822 311.426C940.447 307.98 944.068 306.258 948.685 306.258C952.646 306.258 955.599 307.441 957.544 309.809C959.513 312.176 960.533 315.738 960.603 320.496V345H948.72V320.988C948.72 319.066 948.333 317.66 947.56 316.77C946.787 315.855 945.38 315.398 943.341 315.398C941.021 315.398 939.298 316.312 938.173 318.141V345H926.326V306.961H937.435ZM984.431 336.562C986.095 336.562 987.384 336.117 988.298 335.227C989.212 334.312 989.657 333.047 989.634 331.43H1000.74C1000.74 335.602 999.243 339.023 996.243 341.695C993.267 344.367 989.423 345.703 984.712 345.703C979.181 345.703 974.821 343.969 971.634 340.5C968.446 337.031 966.853 332.227 966.853 326.086V325.594C966.853 321.75 967.556 318.363 968.962 315.434C970.392 312.48 972.443 310.219 975.114 308.648C977.786 307.055 980.95 306.258 984.607 306.258C989.552 306.258 993.478 307.629 996.384 310.371C999.29 313.113 1000.74 316.828 1000.74 321.516H989.634C989.634 319.547 989.153 318.035 988.193 316.98C987.232 315.926 985.943 315.398 984.325 315.398C981.255 315.398 979.462 317.355 978.946 321.27C978.782 322.512 978.7 324.223 978.7 326.402C978.7 330.223 979.157 332.871 980.071 334.348C980.985 335.824 982.439 336.562 984.431 336.562ZM1025.31 345.703C1019.47 345.703 1014.75 343.969 1011.14 340.5C1007.53 337.008 1005.73 332.473 1005.73 326.895V325.91C1005.73 322.02 1006.44 318.586 1007.87 315.609C1009.32 312.633 1011.43 310.336 1014.2 308.719C1016.97 307.078 1020.25 306.258 1024.04 306.258C1029.39 306.258 1033.61 307.922 1036.7 311.25C1039.79 314.555 1041.34 319.172 1041.34 325.102V329.707H1017.79C1018.21 331.84 1019.13 333.516 1020.56 334.734C1021.99 335.953 1023.84 336.562 1026.12 336.562C1029.87 336.562 1032.8 335.25 1034.91 332.625L1040.32 339.023C1038.84 341.062 1036.75 342.691 1034.03 343.91C1031.33 345.105 1028.43 345.703 1025.31 345.703ZM1023.97 315.398C1020.5 315.398 1018.44 317.695 1017.79 322.289H1029.74V321.375C1029.79 319.477 1029.31 318.012 1028.3 316.98C1027.29 315.926 1025.85 315.398 1023.97 315.398Z" fill="#FAFAFA"/>
<path d="M48.5202 38.4913C48.4609 38.3662 48.3684 38.2607 48.2533 38.1868C48.1382 38.113 48.0051 38.0739 47.8692 38.0739H40.3324L46.353 25.0575C46.4053 24.9447 46.4289 24.8201 46.4215 24.6954C46.4141 24.5706 46.3759 24.4499 46.3107 24.3443C46.2454 24.2388 46.1552 24.1518 46.0483 24.0916C45.9414 24.0314 45.8213 23.9999 45.6993 24H34.1264C33.9869 24 33.8503 24.0413 33.7332 24.1189C33.6161 24.1966 33.5234 24.3073 33.4663 24.4376L24.0633 45.9189C24.0139 46.0317 23.9929 46.1554 24.0021 46.2786C24.0114 46.4019 24.0506 46.5209 24.1162 46.6246C24.1818 46.7284 24.2718 46.8137 24.3778 46.8728C24.4839 46.9318 24.6027 46.9627 24.7234 46.9627H31.7823L28.3565 63.1012C28.3216 63.2649 28.3419 63.436 28.4142 63.5863C28.4865 63.7367 28.6064 63.8576 28.7544 63.9291C28.9024 64.0007 29.0698 64.0187 29.2291 63.9802C29.3884 63.9418 29.5303 63.8491 29.6315 63.7174L48.4375 39.2733C48.5215 39.164 48.5737 39.0327 48.5884 38.8944C48.603 38.7562 48.5794 38.6165 48.5202 38.4913Z" fill="white"/>
<defs>
<linearGradient id="paint0_linear" x1="640" y1="0" x2="640" y2="640" gradientUnits="userSpaceOnUse">
<stop stop-color="#F57E50"/>
<stop offset="0.526042" stop-color="#FB5C75"/>
<stop offset="1" stop-color="#FF4290"/>
</linearGradient>
</defs>
</svg>
