<svg width="1280" height="720" viewBox="0 0 1280 720" fill="none" xmlns="http://www.w3.org/2000/svg">
<rect width="1280" height="720" fill="url(#paint0_linear)"/>
<rect x="201" y="292" width="878" height="136" rx="16" fill="#323232"/>
<path d="M256.224 385H243.919V333.812H256.224V385ZM276.29 346.961L276.676 351.426C279.301 347.98 282.923 346.258 287.54 346.258C291.501 346.258 294.454 347.441 296.399 349.809C298.368 352.176 299.387 355.738 299.458 360.496V385H287.575V360.988C287.575 359.066 287.188 357.66 286.415 356.77C285.641 355.855 284.235 355.398 282.196 355.398C279.876 355.398 278.153 356.312 277.028 358.141V385H265.18V346.961H276.29ZM327.118 374.312C327.118 373.305 326.59 372.496 325.535 371.887C324.481 371.277 322.477 370.645 319.524 369.988C316.571 369.332 314.133 368.477 312.211 367.422C310.289 366.344 308.825 365.043 307.817 363.52C306.809 361.996 306.305 360.25 306.305 358.281C306.305 354.789 307.746 351.918 310.629 349.668C313.512 347.395 317.285 346.258 321.95 346.258C326.965 346.258 330.996 347.395 334.043 349.668C337.09 351.941 338.614 354.93 338.614 358.633H326.731C326.731 355.586 325.125 354.062 321.914 354.062C320.672 354.062 319.629 354.414 318.785 355.117C317.942 355.797 317.52 356.652 317.52 357.684C317.52 358.738 318.035 359.594 319.067 360.25C320.098 360.906 321.739 361.445 323.989 361.867C326.262 362.289 328.254 362.793 329.965 363.379C335.684 365.348 338.543 368.875 338.543 373.961C338.543 377.43 336.996 380.254 333.903 382.434C330.832 384.613 326.848 385.703 321.95 385.703C318.692 385.703 315.785 385.117 313.231 383.945C310.676 382.773 308.684 381.18 307.254 379.164C305.825 377.148 305.11 375.027 305.11 372.801H316.184C316.231 374.559 316.817 375.848 317.942 376.668C319.067 377.465 320.508 377.863 322.266 377.863C323.883 377.863 325.09 377.535 325.887 376.879C326.707 376.223 327.118 375.367 327.118 374.312ZM359.066 337.504V346.961H365.324V355.188H359.066V372.59C359.066 374.02 359.324 375.016 359.84 375.578C360.355 376.141 361.375 376.422 362.898 376.422C364.07 376.422 365.055 376.352 365.852 376.211V384.684C363.719 385.363 361.492 385.703 359.172 385.703C355.094 385.703 352.082 384.742 350.137 382.82C348.191 380.898 347.219 377.98 347.219 374.066V355.188H342.367V346.961H347.219V337.504H359.066ZM392.597 385C392.175 384.227 391.8 383.09 391.472 381.59C389.293 384.332 386.246 385.703 382.332 385.703C378.746 385.703 375.699 384.625 373.191 382.469C370.683 380.289 369.429 377.559 369.429 374.277C369.429 370.152 370.953 367.035 374 364.926C377.047 362.816 381.476 361.762 387.289 361.762H390.945V359.758C390.945 356.266 389.433 354.52 386.41 354.52C383.597 354.52 382.191 355.902 382.191 358.668H370.343C370.343 354.988 371.902 352 375.019 349.703C378.16 347.406 382.156 346.258 387.007 346.258C391.859 346.258 395.691 347.441 398.504 349.809C401.316 352.176 402.757 355.422 402.828 359.547V376.387C402.875 379.879 403.414 382.551 404.445 384.402V385H392.597ZM385.179 377.266C386.656 377.266 387.875 376.949 388.836 376.316C389.82 375.684 390.523 374.969 390.945 374.172V368.09H387.5C383.375 368.09 381.312 369.941 381.312 373.645C381.312 374.723 381.675 375.602 382.402 376.281C383.129 376.938 384.054 377.266 385.179 377.266ZM421.452 346.961L421.839 351.426C424.464 347.98 428.085 346.258 432.702 346.258C436.663 346.258 439.616 347.441 441.562 349.809C443.531 352.176 444.55 355.738 444.62 360.496V385H432.738V360.988C432.738 359.066 432.351 357.66 431.577 356.77C430.804 355.855 429.398 355.398 427.359 355.398C425.038 355.398 423.316 356.312 422.191 358.141V385H410.343V346.961H421.452ZM466.163 337.504V346.961H472.421V355.188H466.163V372.59C466.163 374.02 466.421 375.016 466.936 375.578C467.452 376.141 468.472 376.422 469.995 376.422C471.167 376.422 472.151 376.352 472.948 376.211V384.684C470.815 385.363 468.589 385.703 466.268 385.703C462.19 385.703 459.179 384.742 457.233 382.82C455.288 380.898 454.315 377.98 454.315 374.066V355.188H449.464V346.961H454.315V337.504H466.163Z" fill="#FAFAFA"/>
<rect x="508" y="356.5" width="209" height="7" fill="#CFCFCF"/>
<path d="M755.05 385V333.812H771.538C776.062 333.812 780.128 334.844 783.738 336.906C787.347 338.945 790.159 341.84 792.175 345.59C794.214 349.316 795.245 353.5 795.269 358.141V360.496C795.269 365.184 794.273 369.391 792.281 373.117C790.312 376.82 787.523 379.727 783.913 381.836C780.327 383.922 776.32 384.977 771.89 385H755.05ZM767.39 343.34V375.508H771.679C775.218 375.508 777.937 374.254 779.835 371.746C781.734 369.215 782.683 365.465 782.683 360.496V358.281C782.683 353.336 781.734 349.609 779.835 347.102C777.937 344.594 775.171 343.34 771.538 343.34H767.39ZM814.702 385H802.819V346.961H814.702V385ZM802.116 337.152C802.116 335.465 802.725 334.082 803.944 333.004C805.163 331.926 806.745 331.387 808.69 331.387C810.636 331.387 812.218 331.926 813.436 333.004C814.655 334.082 815.265 335.465 815.265 337.152C815.265 338.84 814.655 340.223 813.436 341.301C812.218 342.379 810.636 342.918 808.69 342.918C806.745 342.918 805.163 342.379 803.944 341.301C802.725 340.223 802.116 338.84 802.116 337.152ZM843.1 374.312C843.1 373.305 842.573 372.496 841.518 371.887C840.463 371.277 838.46 370.645 835.506 369.988C832.553 369.332 830.116 368.477 828.194 367.422C826.272 366.344 824.807 365.043 823.799 363.52C822.792 361.996 822.288 360.25 822.288 358.281C822.288 354.789 823.729 351.918 826.612 349.668C829.495 347.395 833.268 346.258 837.932 346.258C842.948 346.258 846.979 347.395 850.026 349.668C853.073 351.941 854.596 354.93 854.596 358.633H842.713C842.713 355.586 841.108 354.062 837.897 354.062C836.655 354.062 835.612 354.414 834.768 355.117C833.924 355.797 833.502 356.652 833.502 357.684C833.502 358.738 834.018 359.594 835.049 360.25C836.081 360.906 837.721 361.445 839.971 361.867C842.245 362.289 844.237 362.793 845.948 363.379C851.667 365.348 854.526 368.875 854.526 373.961C854.526 377.43 852.979 380.254 849.885 382.434C846.815 384.613 842.831 385.703 837.932 385.703C834.674 385.703 831.768 385.117 829.213 383.945C826.659 382.773 824.667 381.18 823.237 379.164C821.807 377.148 821.092 375.027 821.092 372.801H832.167C832.213 374.559 832.799 375.848 833.924 376.668C835.049 377.465 836.491 377.863 838.249 377.863C839.866 377.863 841.073 377.535 841.87 376.879C842.69 376.223 843.1 375.367 843.1 374.312ZM875.049 337.504V346.961H881.307V355.188H875.049V372.59C875.049 374.02 875.307 375.016 875.822 375.578C876.338 376.141 877.358 376.422 878.881 376.422C880.053 376.422 881.037 376.352 881.834 376.211V384.684C879.701 385.363 877.475 385.703 875.154 385.703C871.076 385.703 868.065 384.742 866.119 382.82C864.174 380.898 863.201 377.98 863.201 374.066V355.188H858.35V346.961H863.201V337.504H875.049ZM908.58 385C908.158 384.227 907.783 383.09 907.455 381.59C905.275 384.332 902.228 385.703 898.314 385.703C894.728 385.703 891.681 384.625 889.174 382.469C886.666 380.289 885.412 377.559 885.412 374.277C885.412 370.152 886.935 367.035 889.982 364.926C893.029 362.816 897.459 361.762 903.271 361.762H906.928V359.758C906.928 356.266 905.416 354.52 902.392 354.52C899.58 354.52 898.174 355.902 898.174 358.668H886.326C886.326 354.988 887.885 352 891.002 349.703C894.142 347.406 898.139 346.258 902.99 346.258C907.842 346.258 911.674 347.441 914.486 349.809C917.299 352.176 918.74 355.422 918.81 359.547V376.387C918.857 379.879 919.396 382.551 920.428 384.402V385H908.58ZM901.162 377.266C902.639 377.266 903.857 376.949 904.818 376.316C905.803 375.684 906.506 374.969 906.928 374.172V368.09H903.482C899.357 368.09 897.295 369.941 897.295 373.645C897.295 374.723 897.658 375.602 898.385 376.281C899.111 376.938 900.037 377.266 901.162 377.266ZM937.435 346.961L937.822 351.426C940.447 347.98 944.068 346.258 948.685 346.258C952.646 346.258 955.599 347.441 957.544 349.809C959.513 352.176 960.533 355.738 960.603 360.496V385H948.72V360.988C948.72 359.066 948.333 357.66 947.56 356.77C946.787 355.855 945.38 355.398 943.341 355.398C941.021 355.398 939.298 356.312 938.173 358.141V385H926.326V346.961H937.435ZM984.431 376.562C986.095 376.562 987.384 376.117 988.298 375.227C989.212 374.312 989.657 373.047 989.634 371.43H1000.74C1000.74 375.602 999.243 379.023 996.243 381.695C993.267 384.367 989.423 385.703 984.712 385.703C979.181 385.703 974.821 383.969 971.634 380.5C968.446 377.031 966.853 372.227 966.853 366.086V365.594C966.853 361.75 967.556 358.363 968.962 355.434C970.392 352.48 972.443 350.219 975.114 348.648C977.786 347.055 980.95 346.258 984.607 346.258C989.552 346.258 993.478 347.629 996.384 350.371C999.29 353.113 1000.74 356.828 1000.74 361.516H989.634C989.634 359.547 989.153 358.035 988.193 356.98C987.232 355.926 985.943 355.398 984.325 355.398C981.255 355.398 979.462 357.355 978.946 361.27C978.782 362.512 978.7 364.223 978.7 366.402C978.7 370.223 979.157 372.871 980.071 374.348C980.985 375.824 982.439 376.562 984.431 376.562ZM1025.31 385.703C1019.47 385.703 1014.75 383.969 1011.14 380.5C1007.53 377.008 1005.73 372.473 1005.73 366.895V365.91C1005.73 362.02 1006.44 358.586 1007.87 355.609C1009.32 352.633 1011.43 350.336 1014.2 348.719C1016.97 347.078 1020.25 346.258 1024.04 346.258C1029.39 346.258 1033.61 347.922 1036.7 351.25C1039.79 354.555 1041.34 359.172 1041.34 365.102V369.707H1017.79C1018.21 371.84 1019.13 373.516 1020.56 374.734C1021.99 375.953 1023.84 376.562 1026.12 376.562C1029.87 376.562 1032.8 375.25 1034.91 372.625L1040.32 379.023C1038.84 381.062 1036.75 382.691 1034.03 383.91C1031.33 385.105 1028.43 385.703 1025.31 385.703ZM1023.97 355.398C1020.5 355.398 1018.44 357.695 1017.79 362.289H1029.74V361.375C1029.79 359.477 1029.31 358.012 1028.3 356.98C1027.29 355.926 1025.85 355.398 1023.97 355.398Z" fill="#FAFAFA"/>
<path d="M48.5202 38.4913C48.4609 38.3662 48.3684 38.2607 48.2533 38.1868C48.1382 38.113 48.0051 38.0739 47.8692 38.0739H40.3324L46.353 25.0575C46.4053 24.9447 46.4289 24.8201 46.4215 24.6954C46.4141 24.5706 46.3759 24.4499 46.3107 24.3443C46.2454 24.2388 46.1552 24.1518 46.0483 24.0916C45.9414 24.0314 45.8213 23.9999 45.6993 24H34.1264C33.9869 24 33.8503 24.0413 33.7332 24.1189C33.6161 24.1966 33.5234 24.3073 33.4663 24.4376L24.0633 45.9189C24.0139 46.0317 23.9929 46.1554 24.0021 46.2786C24.0114 46.4019 24.0506 46.5209 24.1162 46.6246C24.1818 46.7284 24.2718 46.8137 24.3778 46.8728C24.4839 46.9318 24.6027 46.9627 24.7234 46.9627H31.7823L28.3565 63.1012C28.3216 63.2649 28.3419 63.436 28.4142 63.5863C28.4865 63.7367 28.6064 63.8576 28.7544 63.9291C28.9024 64.0007 29.0698 64.0187 29.2291 63.9802C29.3884 63.9418 29.5302 63.8491 29.6315 63.7174L48.4375 39.2733C48.5215 39.164 48.5737 39.0327 48.5884 38.8944C48.603 38.7562 48.5794 38.6165 48.5202 38.4913V38.4913Z" fill="white"/>
<defs>
<linearGradient id="paint0_linear" x1="640" y1="0" x2="640" y2="720" gradientUnits="userSpaceOnUse">
<stop stop-color="#F57E50"/>
<stop offset="0.526042" stop-color="#FB5C75"/>
<stop offset="1" stop-color="#FF4290"/>
</linearGradient>
</defs>
</svg>
